<?xml version="1.0" standalone="no"?>
<!DOCTYPE svg PUBLIC "-//W3C//DTD SVG 20010904//EN"
 "http://www.w3.org/TR/2001/REC-SVG-20010904/DTD/svg10.dtd">
<svg version="1.0" xmlns="http://www.w3.org/2000/svg"
 width="355.000000pt" height="120.000000pt" viewBox="0 0 355.000000 120.000000"
 preserveAspectRatio="xMidYMid meet">

<g transform="translate(0.000000,120.000000) scale(0.100000,-0.100000)"
fill="#000000" stroke="none">
<path d="M110 845 l0 -225 150 0 150 0 0 80 c0 103 18 105 22 3 l3 -78 148 -3
147 -3 0 110 0 110 -112 4 -113 3 113 2 112 2 0 110 0 110 -150 0 -150 0 0
-74 c0 -41 -4 -78 -10 -81 -6 -4 -10 23 -10 74 l0 81 -150 0 -150 0 0 -225z"/>
<path d="M772 848 l3 -223 305 0 305 0 3 223 2 222 -150 0 -150 0 0 -115 c0
-70 -4 -115 -10 -115 -6 0 -10 45 -10 115 l0 115 -150 0 -150 0 2 -222z"/>
<path d="M1430 845 l0 -225 310 0 310 0 0 185 0 185 -105 0 -105 0 0 40 0 40
-205 0 -205 0 0 -225z"/>
<path d="M2090 925 l0 -145 55 0 55 0 0 -80 0 -80 200 0 200 0 0 80 0 80 60 0
60 0 0 145 0 145 -315 0 -315 0 0 -145z"/>
<path d="M2750 1000 l0 -70 30 0 30 0 0 -85 0 -85 -30 0 -30 0 0 -70 0 -70
315 0 315 0 0 70 0 70 -30 0 -30 0 0 85 0 85 30 0 30 0 0 70 0 70 -315 0 -315
0 0 -70z"/>
<path d="M110 325 l0 -225 150 0 150 0 0 82 c0 100 18 95 22 -7 l3 -70 148 -3
147 -3 0 106 0 105 -104 0 c-59 0 -108 4 -111 10 -4 6 33 10 104 10 l111 0 0
110 0 111 -147 -3 -148 -3 -3 -77 c-4 -103 -22 -101 -22 2 l0 80 -150 0 -150
0 0 -225z"/>
<path d="M770 480 c0 -68 1 -70 25 -70 25 0 25 -1 25 -85 0 -84 0 -85 -25 -85
-24 0 -25 -2 -25 -70 l0 -70 310 0 310 0 0 70 c0 68 -1 70 -25 70 -25 0 -25 1
-25 85 0 84 0 85 25 85 24 0 25 2 25 70 l0 70 -310 0 -310 0 0 -70z"/>
<path d="M1430 325 l0 -225 100 0 100 0 0 115 c0 150 18 152 22 3 l3 -113 198
-3 197 -2 0 225 0 225 -95 0 -95 0 0 -114 c0 -66 -4 -117 -10 -121 -6 -4 -10
31 -10 99 0 57 -3 111 -6 120 -5 14 -33 16 -205 16 l-199 0 0 -225z"/>
<path d="M2094 537 c-2 -7 -3 -107 -2 -222 l3 -210 304 -3 c237 -2 306 1 313
10 9 15 11 399 2 422 -5 14 -42 16 -310 16 -238 0 -306 -3 -310 -13z m316
-218 c0 -104 -3 -158 -10 -154 -6 4 -10 68 -10 161 0 96 4 154 10 154 6 0 10
-60 10 -161z"/>
</g>
</svg>
